<svg xmlns="http://www.w3.org/2000/svg" width="1000" height="600" viewBox="0 0 1000 600" data-palette="dce656-9ce76a-f6e0ac-5e58edbd6e33" role="img" aria-labelledby="integrations-light-title integrations-light-desc"><title id="integrations-light-title">BranchTree integration routes</title><desc id="integrations-light-desc">Local writing inputs and outputs</desc><defs><linearGradient id="brand" gradientUnits="userSpaceOnUse" x2="1000" y2="600"><stop stop-color="#74792d"/><stop offset=".6" stop-color="#57803b"/><stop offset="1" stop-color="#7f7459"/></linearGradient><radialGradient id="halo"><stop stop-color="#74792d" stop-opacity=".22"/><stop offset="1" stop-color="#fefef9" stop-opacity="0"/></radialGradient><filter id="glow"><feGaussianBlur stdDeviation="5"/></filter><pattern id="grid" width="40" height="40" patternUnits="userSpaceOnUse"><path d="M40 0H0V40" fill="none" stroke="#f4f7cb" stroke-opacity=".35" stroke-width=".6"/></pattern><marker id="arrow" viewBox="0 0 10 10" refX="8" refY="5" markerWidth="5" markerHeight="5" orient="auto"><path d="m1 1 7 4-7 4" fill="none" stroke="#74792d" stroke-width="1.5"/></marker></defs><style>text{font-family:Arial,"Noto Sans",sans-serif}.flow{stroke-dasharray:10 110;animation:flow 6s linear infinite}.pulse{animation:pulse 5s ease-in-out infinite}.turn{transform-box:fill-box;transform-origin:center;animation:turn 36s linear infinite}@keyframes flow{to{stroke-dashoffset:-360}}@keyframes pulse{0%,100%{opacity:.45}50%{opacity:1}}@keyframes turn{to{transform:rotate(360deg)}}@media(prefers-reduced-motion:reduce){*{animation:none!important;transform:none!important}.flow{display:none}}</style><rect width="1000" height="600" rx="16" fill="#fefef9"/><rect width="1000" height="600" rx="16" fill="url(#grid)"/><ellipse cx="630.0" cy="258.0" rx="500.0" ry="420.0" fill="url(#halo)"/><text x="44" y="44" fill="#6e7869" font-size="13" text-anchor="start" font-weight="400">CAPABILITIES / CONNECTIONS</text><text x="44" y="84.0" fill="#262a1c" font-size="30" text-anchor="start" font-weight="400">Local writing inputs and outputs</text><ellipse cx="500" cy="337" rx="238" ry="176" fill="none" stroke="#f4f7cb"/><ellipse cx="500" cy="337" rx="193" ry="144" fill="none" stroke="#f4f7cb" stroke-dasharray="2 9"/><circle cx="500" cy="337" r="68" fill="#fdfef7" stroke="#74792d"/><text x="500" y="348" fill="#74792d" font-size="34" text-anchor="middle" font-weight="700">BR</text><path d="M276 211H390V337H432" fill="none" stroke="#74792d" stroke-width="1.5" marker-end="url(#arrow)"/><path d="M276 211H390V337H432" class="flow" fill="none" stroke="#7f7459" stroke-width="2"/><rect x="40" y="156" width="236" height="112" rx="12" fill="#fdfef7" stroke="#f4f7cb"/><text x="58" y="187.0" fill="#262a1c" font-size="21" text-anchor="start" font-weight="400">UTF-8 text</text><text x="58" y="239.0" fill="#6e7869" font-size="17" text-anchor="start" font-weight="400">Chapter input</text><path d="M568 337H662V211H724" fill="none" stroke="#74792d" stroke-width="1.5" marker-end="url(#arrow)"/><path d="M568 337H662V211H724" class="flow" fill="none" stroke="#7f7459" stroke-width="2"/><rect x="724" y="156" width="236" height="112" rx="12" fill="#fdfef7" stroke="#f4f7cb"/><text x="742" y="187.0" fill="#262a1c" font-size="21" text-anchor="start" font-weight="400">Python API</text><text x="742" y="239.0" fill="#6e7869" font-size="17" text-anchor="start" font-weight="400">Tree and lock</text><text x="742" y="262.8" fill="#6e7869" font-size="17" text-anchor="start" font-weight="400">operations</text><path d="M276 357H390V337H432" fill="none" stroke="#74792d" stroke-width="1.5" marker-end="url(#arrow)"/><path d="M276 357H390V337H432" class="flow" fill="none" stroke="#7f7459" stroke-width="2"/><rect x="40" y="302" width="236" height="112" rx="12" fill="#fdfef7" stroke="#f4f7cb"/><text x="58" y="333.0" fill="#262a1c" font-size="21" text-anchor="start" font-weight="400">JSON</text><text x="58" y="385.0" fill="#6e7869" font-size="17" text-anchor="start" font-weight="400">Persisted story tree</text><path d="M568 337H662V357H724" fill="none" stroke="#74792d" stroke-width="1.5" marker-end="url(#arrow)"/><path d="M568 337H662V357H724" class="flow" fill="none" stroke="#7f7459" stroke-width="2"/><rect x="724" y="302" width="236" height="112" rx="12" fill="#fdfef7" stroke="#f4f7cb"/><text x="742" y="333.0" fill="#262a1c" font-size="21" text-anchor="start" font-weight="400">Static HTML</text><text x="742" y="385.0" fill="#6e7869" font-size="17" text-anchor="start" font-weight="400">Branch reading view</text></svg>
